
<svg width="48px" height="51px" viewBox="0 0 48 51" version="1.1" xmlns="http://www.w3.org/2000/svg" xmlns:xlink="http://www.w3.org/1999/xlink">
    <g id="Symbols" stroke="none" stroke-width="1" fill="none" fill-rule="evenodd">
        <g id="clap" transform="translate(-26.000000, -24.000000)" fill="#FFFFFF">
            <g id="icon" transform="translate(26.230244, 24.717543)">
                <path d="M38.4651621,1.47134821 C39.2781841,2.84414632 38.8715124,4.60137291 37.5673668,5.48371695 L37.4129239,5.58157161 L27.9046807,11.2149568 L28.0995078,11.3512228 L28.292449,11.4913083 L41.8795413,3.68385207 L42.0349158,3.60044422 C43.445787,2.89490446 45.1793489,3.40495132 45.9754044,4.79018767 C46.7703574,6.17352994 46.3404888,7.92522163 45.0247917,8.79024666 L44.8690686,8.88605092 L32.290971,16.1140777 L32.3756051,16.2718176 L32.4580508,16.4300975 L42.8628846,10.7373813 L43.0197456,10.6568907 C44.4411636,9.97477751 46.108672,10.4310877 46.8083422,11.7226701 C47.5060191,13.0105727 46.9873299,14.6600501 45.6543028,15.49201 L45.4904564,15.5878456 L33.9841753,21.8832368 L33.9875607,21.9359759 L33.9907358,21.9886953 L38.3301886,19.6668653 L38.4880176,19.5882012 C39.9196307,18.9257604 41.6369321,19.4881308 42.3906188,20.8968681 C43.1432715,22.3036729 42.6604931,24.0415266 41.3191724,24.8662598 L41.160616,24.9572983 L34.3167124,28.6192864 C34.0925602,28.2708913 33.7922541,27.9635693 33.4215803,27.7242022 C32.423851,27.0799066 31.1871351,27.1028414 30.2356659,27.6801691 L26.1407063,33.9128825 L26.1666699,33.9600018 L26.1666699,33.9600018 L26.1924194,34.0072001 L28.9873506,29.8395494 L29.0897747,29.6959969 C30.0428169,28.4389948 31.8231211,28.1293142 33.1499489,29.0193209 C34.4749567,29.9081068 34.8645615,31.6691912 34.0674345,33.0270994 L33.9701774,33.1819193 L26.7260072,43.9836787 C26.5513925,44.3606953 26.3518496,44.7301408 26.1268529,45.0902108 C22.8604876,50.317488 15.4665245,51.5893716 9.61197415,47.9310425 C5.83529961,45.5711144 3.6217915,41.7360459 3.40312687,37.9078457 L3.38927959,37.5797656 L1.87742905,26.0362713 L1.85958533,25.8608301 C1.74553213,24.2875101 2.87824864,22.8795548 4.46237916,22.6719237 C6.04654656,22.464555 7.50366864,23.5332887 7.79866909,25.0829077 L7.82661194,25.2570262 L8.21412685,28.2119505 L16.4412007,14.7113222 L16.5372784,14.5634468 C17.4346953,13.2661471 19.1998301,12.879257 20.5642473,13.7104952 C21.3757983,14.2051763 21.869236,15.0235047 21.9797251,15.8984562 C22.2654739,14.6546628 21.7305749,13.3167138 20.5707167,12.6371973 C19.1920002,11.829898 17.4338864,12.247535 16.5592472,13.5602993 L16.4657649,13.7098289 L10.6887869,23.5737543 C9.79203984,19.9414807 10.4297192,16.2222861 12.3900087,13.4335997 L12.5904385,13.1578704 L16.1791272,3.58130441 L16.2457368,3.41802186 C16.8836627,1.97531807 18.544787,1.26394551 20.0409682,1.82432237 C21.5370587,2.38494822 22.321881,4.01266147 21.8548489,5.51938815 L21.7977773,5.68624398 L20.7531321,8.47647694 L34.3548683,0.419372872 L34.5091231,0.333912457 C35.9105405,-0.390223537 37.650696,0.0968533916 38.4651621,1.47134821 Z M46.7765015,27.1975445 C48.7391533,33.2379656 45.4334681,39.725738 39.393047,41.6883898 C39.13042,41.7737225 38.848343,41.6299971 38.7630103,41.3673701 C38.6776776,41.1047431 38.821403,40.822666 39.08403,40.7373333 C44.5991971,38.9453469 47.6174314,33.0217286 45.825445,27.5065614 C45.7401123,27.2439344 45.8838378,26.9618574 46.1464648,26.8765247 C46.4090918,26.791192 46.6911688,26.9349174 46.7765015,27.1975445 Z M44.8743885,27.8155784 C46.4957095,32.8054915 43.7649261,38.1649557 38.775013,39.7862768 C38.512386,39.8716095 38.230309,39.727884 38.1449763,39.465257 C38.0596436,39.20263 38.203369,38.920553 38.465996,38.8352203 C42.9306551,37.3845646 45.3739877,32.5892545 43.923332,28.1245954 C43.8379993,27.8619684 43.9817247,27.5798914 44.2443517,27.4945587 C44.5069787,27.409226 44.7890558,27.5529514 44.8743885,27.8155784 Z M42.9722755,28.4336124 C44.2522658,32.3730175 42.0963841,36.6041735 38.156979,37.8841638 C37.894352,37.9694964 37.612275,37.825771 37.5269423,37.563144 C37.4416096,37.300517 37.585335,37.0184399 37.8479621,36.9331072 C41.2621131,35.8237823 43.1305439,32.1567805 42.0212189,28.7426294 C41.9358863,28.4800024 42.0796117,28.1979254 42.3422387,28.1125927 C42.6048657,28.02726 42.8869428,28.1709854 42.9722755,28.4336124 Z M29.5674287,17.4577734 L22.064389,29.4143972 L22.2122359,29.5194053 L22.2122359,29.5194053 L22.3582681,29.6259748 L28.7973447,19.8273157 L28.8980566,19.6826049 C29.8328614,18.4130194 31.5194087,18.0330696 32.743542,18.8449939 C33.4198809,19.2935855 33.8186115,20.0155064 33.9059538,20.8015551 C34.198346,19.5894037 33.7090731,18.2739306 32.597914,17.5679631 C31.6495086,16.9653999 30.4916133,16.9616124 29.5674287,17.4577734 Z M24.7250113,12.7688551 L24.6295546,12.9171323 L16.1051462,27.0399315 L16.2717456,27.0645309 L16.2717456,27.0645309 L16.4383691,27.0913209 L24.6176728,14.0610662 L24.7157027,13.9144775 C25.6301971,12.629159 27.400294,12.2656456 28.7534984,13.1150113 C29.4511585,13.552919 29.9066635,14.2307772 30.080124,14.9742036 L30.117,15.159 L30.1556166,14.9754124 C30.3581892,13.7943568 29.836556,12.5559626 28.7482394,11.8990414 C27.3804176,11.0734217 25.6169345,11.4677722 24.7250113,12.7688551 Z M8.57944631,5.00048924 C8.664779,5.26311624 8.52105356,5.54519331 8.25842655,5.63052599 C2.74325944,7.42251242 -0.27497485,13.3461307 1.51701157,18.8612979 C1.60234426,19.1239249 1.45861881,19.4060019 1.19599181,19.4913346 C0.933364805,19.5766673 0.651287741,19.4329419 0.565955054,19.1703149 C-1.39669674,13.1298937 1.90898844,6.64212127 7.94940956,4.67946948 C8.21203656,4.59413679 8.49411362,4.73786223 8.57944631,5.00048924 Z M9.1974803,6.90260227 C9.28281299,7.16522928 9.13908754,7.44730634 8.87646054,7.53263903 C4.41180145,8.9832947 1.96846893,13.7786048 3.4191246,18.2432639 C3.50445729,18.5058909 3.36073185,18.7879679 3.09810484,18.8733006 C2.83547784,18.9586333 2.55340077,18.8149079 2.46806809,18.5522809 C0.846747039,13.5623678 3.57753045,8.20290356 8.56744355,6.58158251 C8.83007055,6.49624982 9.11214761,6.63997527 9.1974803,6.90260227 Z M9.81551429,8.8047153 C9.90084698,9.06734231 9.75712153,9.34941937 9.49449453,9.43475206 C6.08034346,10.544077 4.21191271,14.2110788 5.32123764,17.6252299 C5.40657032,17.8878569 5.26284488,18.1699339 5.00021787,18.2552666 C4.73759087,18.3405993 4.45551381,18.1968739 4.37018112,17.9342469 C3.09019082,13.9948418 5.24607246,9.76368584 9.18547753,8.48369554 C9.44810454,8.39836286 9.7301816,8.5420883 9.81551429,8.8047153 Z" id="Combined-Shape"></path>
            </g>
        </g>
    </g>
</svg>