
<svg width="48px" height="59px" viewBox="0 0 48 59" version="1.1" xmlns="http://www.w3.org/2000/svg" xmlns:xlink="http://www.w3.org/1999/xlink">
    <g id="Symbols" stroke="none" stroke-width="1" fill="none" fill-rule="evenodd">
        <g id="heater-3" transform="translate(-26.000000, -21.000000)" fill="#FFFFFF" fill-rule="nonzero">
            <g id="icon" transform="translate(27.000000, 21.000000)">
                <path d="M10.8278707,0.555687571 C9.20458973,2.33763244 8.5365346,4.22453358 9.34101468,6.48987839 C10.1349426,8.72470728 12.5732559,10.77436 10.6273788,13.076925 C9.21966431,14.741661 11.7496813,17.1061825 13.1737266,15.420409 C14.7766569,13.5240295 15.4695851,11.5897362 14.6605827,9.23631133 C13.9307218,7.11291179 11.4331151,5.0295066 13.3742185,2.89917163 C14.856301,1.27258054 12.3222641,-1.08477439 10.8278707,0.555687571 Z M21.8278707,0.555687571 C20.2045897,2.33763244 19.5365346,4.22453358 20.3410147,6.48987839 C21.1349426,8.72470728 23.5732559,10.77436 21.6273788,13.076925 C20.2196643,14.741661 22.7496813,17.1061825 24.1737266,15.420409 C25.7766569,13.5240295 26.4695851,11.5897362 25.6605827,9.23631133 C24.9307218,7.11291179 22.4331151,5.0295066 24.3742185,2.89917163 C25.856301,1.27258054 23.3222641,-1.08477439 21.8278707,0.555687571 Z M32.8278707,0.555687571 C31.2045897,2.33763244 30.5365346,4.22453358 31.3410147,6.48987839 C32.1349426,8.72470728 34.5732559,10.77436 32.6273788,13.076925 C31.2196643,14.741661 33.7496813,17.1061825 35.1737266,15.420409 C36.7766569,13.5240295 37.4695851,11.5897362 36.6605827,9.23631133 C35.9307218,7.11291179 33.4331151,5.0295066 35.3742185,2.89917163 C36.856301,1.27258054 34.3222641,-1.08477439 32.8278707,0.555687571 Z M33,49.5 C33,51.9852814 30.9852814,54 28.5,54 C26.0147186,54 24,51.9852814 24,49.5 L24,49 L22,49 L22,49.5 C22,51.9852814 19.9852814,54 17.5,54 C15.0147186,54 13,51.9852814 13,49.5 L13,49 L11,49 L11,49.5 C11,51.9852814 8.98528137,54 6.5,54 C4.01471863,54 2,51.9852814 2,49.5 L2,49 L0.5,49 C-0.328427125,49 -1,48.3284271 -1,47.5 C-1,46.7203039 -0.405111917,46.0795513 0.355539989,46.0068666 L0.5,46 L2,46 L2,27 L0.5,27 C-0.328427125,27 -1,26.3284271 -1,25.5 C-1,24.7203039 -0.405111917,24.0795513 0.355539989,24.0068666 L0.5,24 L2,24 L2,22.5 C2,20.0147186 4.01471863,18 6.5,18 C8.98528137,18 11,20.0147186 11,22.5 L11,24 L13,24 L13,22.5 C13,20.0147186 15.0147186,18 17.5,18 C19.9852814,18 22,20.0147186 22,22.5 L22,24 L24,24 L24,22.5 C24,20.0147186 26.0147186,18 28.5,18 C30.9852814,18 33,20.0147186 33,22.5 L33,24 L35,24 L35,22.5 C35,20.0147186 37.0147186,18 39.5,18 C41.9852814,18 44,20.0147186 44,22.5 L44,24 L45.5,24 C46.3284271,24 47,24.6715729 47,25.5 C47,26.2796961 46.4051119,26.9204487 45.64446,26.9931334 L45.5,27 L44,27 L44,46 L45.5,46 C46.3284271,46 47,46.6715729 47,47.5 C47,48.2796961 46.4051119,48.9204487 45.64446,48.9931334 L45.5,49 L44,49 L44,49.5 C44,51.9852814 41.9852814,54 39.5,54 C37.0147186,54 35,51.9852814 35,49.5 L35,49 L33,49 L33,49.5 Z M6.5,21 C5.72030388,21 5.07955132,21.5948881 5.00686658,22.35554 L5,22.5 L5,49.5 C5,50.3284271 5.67157288,51 6.5,51 C7.27969612,51 7.92044868,50.4051119 7.99313342,49.64446 L8,49.5 L8,22.5 C8,21.6715729 7.32842712,21 6.5,21 Z M17.5,21 C16.7203039,21 16.0795513,21.5948881 16.0068666,22.35554 L16,22.5 L16,49.5 C16,50.3284271 16.6715729,51 17.5,51 C18.2796961,51 18.9204487,50.4051119 18.9931334,49.64446 L19,49.5 L19,22.5 C19,21.6715729 18.3284271,21 17.5,21 Z M28.5,21 C27.7203039,21 27.0795513,21.5948881 27.0068666,22.35554 L27,22.5 L27,49.5 C27,50.3284271 27.6715729,51 28.5,51 C29.2796961,51 29.9204487,50.4051119 29.9931334,49.64446 L30,49.5 L30,22.5 C30,21.6715729 29.3284271,21 28.5,21 Z M39.5,21 C38.7203039,21 38.0795513,21.5948881 38.0068666,22.35554 L38,22.5 L38,49.5 C38,50.3284271 38.6715729,51 39.5,51 C40.2796961,51 40.9204487,50.4051119 40.9931334,49.64446 L41,49.5 L41,22.5 C41,21.6715729 40.3284271,21 39.5,21 Z M33,46 L35,46 L35,27 L33,27 L33,46 Z M13,27 L11,27 L11,46 L13,46 L13,27 Z M24,27 L22,27 L22,46 L24,46 L24,27 Z M39.5,59 C40.3284271,59 41,58.3284271 41,57.5 C41,56.6715729 40.3284271,56 39.5,56 C38.6715729,56 38,56.6715729 38,57.5 C38,58.3284271 38.6715729,59 39.5,59 Z M28.5,59 C29.3284271,59 30,58.3284271 30,57.5 C30,56.6715729 29.3284271,56 28.5,56 C27.6715729,56 27,56.6715729 27,57.5 C27,58.3284271 27.6715729,59 28.5,59 Z M17.5,59 C18.3284271,59 19,58.3284271 19,57.5 C19,56.6715729 18.3284271,56 17.5,56 C16.6715729,56 16,56.6715729 16,57.5 C16,58.3284271 16.6715729,59 17.5,59 Z" id="Combined-Shape"></path>
            </g>
        </g>
    </g>
</svg>