
<svg width="64px" height="70px" viewBox="0 0 64 70" version="1.1" xmlns="http://www.w3.org/2000/svg" xmlns:xlink="http://www.w3.org/1999/xlink">
    <g id="Symbols" stroke="none" stroke-width="1" fill="none" fill-rule="evenodd">
        <g id="kick-n-hat" transform="translate(-18.000000, -17.000000)" fill="#FFFFFF" stroke="#FFFFFF">
            <g id="icon" transform="translate(18.000000, 17.000000)">
                <path d="M1.118,38.243 L1.25478652,38.4259895 C2.74525928,40.3638344 5.08439655,42.057829 8.1082705,43.4771069 C11.9029611,51.3635784 19.4877859,57.0816407 28.5003038,58.2709 L28.5003038,58.2709 L28.4999945,59.0132068 C28.5520371,60.0207626 28.9554027,60.8822615 29.5693257,61.4961845 C30.2008177,62.1276765 31.0568478,62.5 32,62.5 C32.9292801,62.5 33.7739571,62.1378195 34.4006307,61.5469648 C35.0342527,60.9495588 35.4447996,60.1182969 35.4948492,59.1912737 L35.4948492,59.1912737 L35.4986782,58.2710343 C44.5123051,57.081984 52.0980265,51.3630455 55.8933983,43.4760966 C58.974568,42.0299386 61.3426528,40.2989354 62.8063442,38.4003002 C61.3084638,45.6691451 57.4125058,51.881334 52.0077173,56.3310252 L52.0077173,56.3310252 L57.1650635,65.2661524 C57.5102415,65.8640182 57.5804085,66.5451951 57.4148146,67.1632 C57.2492206,67.781205 56.8478658,68.336038 56.25,68.6812159 C55.6752098,69.0130712 55.0234117,69.0907602 54.4247778,68.9490849 C53.8269034,68.8075894 53.2819208,68.4474583 52.9198487,67.9030554 L52.9198487,67.9030554 L47.8911356,59.2038216 C43.2261803,61.9348554 37.7958559,63.5 32,63.5 C26.2040491,63.5 20.7736418,61.9348041 16.1086351,59.2036874 L16.1086351,59.2036874 L11.1650635,67.7661524 C10.8198855,68.3640182 10.2650526,68.7653731 9.64704761,68.930967 C9.02904267,69.0965609 8.34786578,69.0263939 7.75,68.6812159 C7.17520981,68.3493607 6.78203013,67.8237314 6.60540759,67.2344616 C6.42900736,66.6459336 6.46840124,65.9938921 6.75883983,65.4081224 L6.75883983,65.4081224 L11.9921171,56.3308885 C6.61146902,51.9010462 2.72553052,45.7211042 1.20593052,38.6639789 L1.118,38.243 Z M12.5892804,45.2490316 C17.0297264,46.6531565 22.3944407,47.6103596 28.2376184,47.9005728 L28.2376184,47.9005728 L28.5000285,55.2412051 C21.8996094,54.2557924 16.1962725,50.5253001 12.5892804,45.2490316 Z M51.435033,45.2145834 C47.8283751,50.5090044 42.1151271,54.2533009 35.5009706,55.241056 L35.5009706,55.241056 L35.5008516,47.913098 C41.4455093,47.6389417 46.9057653,46.6742919 51.435033,45.2145834 Z M32,0.5 C38.5820432,0.5 44.6926411,2.51864532 49.7462461,5.97087999 C54.3165589,9.09296663 58.0225764,13.3872669 60.4303138,18.4206952 C58.1932475,16.6697478 55.1066792,15.1412119 51.4002308,13.94839 C47.2571212,9.49696881 41.6001231,6.47380889 35.2497104,5.69713754 C35.0088543,5.09724091 34.6067831,4.57931473 34.0968591,4.19734737 C33.5123709,3.75952641 32.7865097,3.5 32,3.5 C31.2134168,3.5 30.4874948,3.75957459 29.9030195,4.1975151 C29.3931312,4.57956856 28.9911375,5.09762271 28.7499452,5.69777053 C22.3982858,6.47432951 16.7411285,9.49803679 12.597384,13.9491792 C8.89198761,15.1418761 5.80625211,16.6701224 3.56982303,18.4195659 C5.97843404,13.3863307 9.68420265,9.09251248 14.2540786,5.97073655 C19.307619,2.51855952 25.4180969,0.5 32,0.5 Z M28.5000412,8.75879326 L28.500137,11.2601889 C25.2135103,11.4117062 22.0749803,11.7741544 19.1602593,12.3145239 C21.924643,10.5076871 25.0928312,9.26747591 28.5000412,8.75879326 L28.5000412,8.75879326 Z M35.5009579,8.75894239 C38.8450891,9.25835418 41.9588869,10.4624462 44.6854713,12.2150086 C42.0135453,11.7923665 39.0177811,11.439608 35.8817458,11.2787834 L35.8817458,11.2787834 Z M3.748,32.383 L3.89210294,32.4935679 C5.47452748,33.6756298 7.44893886,34.7509932 9.74213184,35.6831724 C15.5326526,38.0370095 23.3701365,39.4866667 32,39.4866667 C40.6237804,39.4866667 48.4562991,38.0390562 54.2455975,35.6881932 C56.5383793,34.7571622 58.5129399,33.6830902 60.0962039,32.5023841 L60.241,32.391 L60.036471,32.5626414 C54.8510764,36.801575 44.4739951,39.668072 32.535587,39.751464 L32,39.7533333 C19.8369128,39.7533333 9.22630628,36.8648327 3.96314208,32.562128 L3.748,32.383 Z M63.378,29.068 L63.3955871,29.2834298 C63.4090646,29.4717701 63.4213278,29.6577186 63.4323236,29.8418028 L63.452,30.226 L63.4296926,30.186128 L63.4296926,30.186128 L63.2829077,29.9502497 C63.2344632,29.8750094 63.1852279,29.800919 63.1350354,29.7279035 L63.035,29.588 L63.0880397,29.5150102 C63.1519953,29.4231667 63.2138647,29.3309408 63.2736301,29.2383446 L63.378,29.068 Z M0.633,29.088 L0.718457499,29.2259729 C0.778078162,29.3186649 0.839806405,29.4109867 0.903624379,29.502926 L0.963,29.585 L0.864956025,29.7257248 L0.864956025,29.7257248 L0.716251054,29.9497029 L0.716251054,29.9497029 L0.551,30.216 L0.57752258,29.7724456 L0.57752258,29.7724456 L0.633,29.088 Z" id="Combined-Shape"></path>
            </g>
        </g>
    </g>
</svg>