
<svg width="64px" height="70px" viewBox="0 0 64 70" version="1.1" xmlns="http://www.w3.org/2000/svg" xmlns:xlink="http://www.w3.org/1999/xlink">
    <g id="Symbols" stroke="none" stroke-width="1" fill="none" fill-rule="evenodd">
        <g id="kick" transform="translate(-18.000000, -17.000000)" fill="#FFFFFF" stroke="#FFFFFF">
            <g id="icon" transform="translate(18.000000, 17.000000)">
                <path d="M32,0.5 C40.6984848,0.5 48.5734848,4.0257576 54.2738636,9.72613639 C59.9742424,15.4265152 63.5,23.3015152 63.5,32 C63.5,41.6304574 59.1782104,50.2514672 52.3684148,56.0295502 L52.007717,56.3310249 L57.1650635,65.2661524 C57.5102415,65.8640182 57.5804085,66.5451951 57.4148146,67.1632 C57.2492206,67.781205 56.8478658,68.336038 56.25,68.6812159 C55.6752098,69.0130712 55.0234117,69.0907602 54.4247778,68.9490849 C53.8933339,68.8233111 53.4036811,68.5247882 53.0471355,68.077651 L52.9198487,67.9030554 L47.8911356,59.2038216 C43.2261803,61.9348554 37.7958559,63.5 32,63.5 C26.4039095,63.5 21.1485873,62.0408875 16.5939359,59.4820413 L16.1086351,59.2036874 L11.1650635,67.7661524 C10.8198855,68.3640182 10.2650526,68.7653731 9.64704761,68.930967 C9.02904267,69.0965609 8.34786578,69.0263939 7.75,68.6812159 C7.17520981,68.3493607 6.78203013,67.8237314 6.60540759,67.2344616 C6.44860739,66.7113256 6.46231117,66.1380061 6.67127656,65.6056555 L6.75883983,65.4081224 L11.9921172,56.3308884 C4.97469109,50.5535101 0.5,41.7993356 0.5,32 C0.5,23.3015152 4.0257576,15.4265152 9.72613639,9.72613639 C15.4265152,4.0257576 23.3015152,0.5 32,0.5 Z M32,5.5 C24.6822271,5.5 18.0572271,8.46611353 13.2616703,13.2616703 C8.46611353,18.0572271 5.5,24.6822271 5.5,32 C5.5,39.3177729 8.46611353,45.9427729 13.2616703,50.7383297 C18.0572271,55.5338865 24.6822271,58.5 32,58.5 C39.3177729,58.5 45.9427729,55.5338865 50.7383297,50.7383297 C55.5338865,45.9427729 58.5,39.3177729 58.5,32 C58.5,24.6822271 55.5338865,18.0572271 50.7383297,13.2616703 C45.9427729,8.46611353 39.3177729,5.5 32,5.5 Z M32,8.5 C38.4893458,8.5 44.3643458,11.1303271 48.6170094,15.3829906 C52.8696729,19.6356542 55.5,25.5106542 55.5,32 C55.5,38.4893458 52.8696729,44.3643458 48.6170094,48.6170094 C44.3643458,52.8696729 38.4893458,55.5 32,55.5 C25.5106542,55.5 19.6356542,52.8696729 15.3829906,48.6170094 C11.1303271,44.3643458 8.5,38.4893458 8.5,32 C8.5,25.5106542 11.1303271,19.6356542 15.3829906,15.3829906 C19.6356542,11.1303271 25.5106542,8.5 32,8.5 Z" id="Combined-Shape"></path>
            </g>
        </g>
    </g>
</svg>