
<svg width="64px" height="64px" viewBox="0 0 64 64" version="1.1" xmlns="http://www.w3.org/2000/svg" xmlns:xlink="http://www.w3.org/1999/xlink">
    <g id="Symbols" stroke="none" stroke-width="1" fill="none" fill-rule="evenodd">
        <g id="open-hh" transform="translate(-18.000000, -18.000000)" fill="#FFFFFF" stroke="#FFFFFF">
            <g id="icon" transform="translate(18.000000, 18.000000)">
                <path d="M61.6584785,31.4470317 C62.8403508,32.8160333 63.5,34.292206 63.5,35.84 C63.5,37.4613338 62.7758342,39.0045232 61.4856754,40.4277667 C60.0856413,41.9722197 58.0254991,43.3717464 55.4595279,44.5746104 C50.1844043,47.0474583 42.7888055,48.6767032 34.500879,48.951981 L34.500879,48.951981 L34.5,61 C34.5,61.6903559 34.220178,62.3153559 33.767767,62.767767 C33.3153559,63.220178 32.6903559,63.5 32,63.5 C31.3362895,63.5 30.7329712,63.2413815 30.2853767,62.8193702 C29.8383564,62.3979002 29.546455,61.8135367 29.5050863,61.1610449 L29.5050863,61.1610449 L29.4999527,48.9520086 C21.2118648,48.6768182 13.8160855,47.0476099 8.54080682,44.5747673 C5.97473313,43.3718932 3.91450498,41.9723447 2.51441126,40.4278623 C1.22419819,39.0045924 0.5,37.4613703 0.5,35.84 C0.5,34.2921375 1.15971122,32.8159011 2.34218219,31.4473659 C7.35935964,36.3105429 18.7328444,39.7533333 32,39.7533333 C45.2679991,39.7533333 56.6420809,36.310102 61.6584785,31.4470317 Z M32,0.5 C32.6637105,0.5 33.2670288,0.758618471 33.7146233,1.18062978 C34.1616865,1.60214021 34.453601,2.18657537 34.4949256,2.83914286 L34.4949256,2.83914286 L34.5014258,8.22137051 C42.7891307,8.49670176 50.1845203,10.1259294 55.4595279,12.5987229 C58.0254991,13.8015869 60.0856413,15.2011137 61.4856754,16.7455666 C62.7758342,18.1688101 63.5,19.7119995 63.5,21.3333333 C63.5,23.0641595 62.6753293,24.7051687 61.2179547,26.2063585 C59.6345498,27.8373676 57.3104897,29.2993109 54.4311977,30.5278088 C48.6905536,32.9771503 40.7590858,34.4866667 32,34.4866667 C23.2409142,34.4866667 15.3094464,32.9771503 9.56880234,30.5278088 C6.68951032,29.2993109 4.36545018,27.8373676 2.78204525,26.2063585 C1.32467066,24.7051687 0.5,23.0641595 0.5,21.3333333 C0.5,19.7119631 1.22419819,18.1687409 2.51441126,16.745471 C3.91450498,15.2009886 5.97473313,13.8014401 8.54080682,12.598566 C13.8161319,10.1257017 21.2119947,8.49648647 29.5001712,8.22131748 L29.5001712,8.22131748 L29.5,3 C29.5,2.30964406 29.779822,1.68464406 30.232233,1.23223305 C30.6846441,0.779822031 31.3096441,0.5 32,0.5 Z" id="Combined-Shape"></path>
            </g>
        </g>
    </g>
</svg>